<svg xmlns="http://www.w3.org/2000/svg" xmlns:xlink="http://www.w3.org/1999/xlink" width="1262.477" height="314.999" viewBox="0 0 1262.477 314.999"><defs><linearGradient id="a" x1="12.977" y1="8.052" x2="12.853" y2="8.997" gradientUnits="objectBoundingBox"><stop offset="0" stop-color="#057cf3"/><stop offset="0.11" stop-color="#1685f5"/><stop offset="0.346" stop-color="#3495fa"/><stop offset="0.576" stop-color="#4aa1fd"/><stop offset="0.798" stop-color="#58a8fe"/><stop offset="1" stop-color="#5caaff"/></linearGradient></defs><g transform="translate(-54.75 -111.72)"><path d="M208.717,209.46h0l23.145-97.74L54.75,278.318l139.3,28.7h0l-23.145,97.74,177.113-166.6Z" transform="translate(0)" fill="url(#a)"/><g transform="translate(421.752 121.095)"><path d="M505.71,380.718V205.974h40.716v23.389c11.939-11.939,25.725-23.389,63.454-26.783v47.161c-45.468,0-59.718,45.721-59.718,74.221v56.756H505.71Z" transform="translate(-505.71 -138.011)" fill="#000038"/><path d="M667.7,366.161V124.39h43.629v90.245c7.324-10.327,22.649-23.642,50.286-23.642,35.3,0,64.276,20.98,64.276,75.262v99.905H782.262V275.916c0-29.306-13.99-42.628-34.636-42.628-21.648,0-36.3,18.319-36.3,44.622v88.251H667.7Z" transform="translate(-535.869 -123.454)" fill="#000038"/><path d="M1043.374,210.73,1008.7,297.549a.083.083,0,0,1-.033.057L985.7,355.135c-15.332,33.334-28.6,50.482-44.3,64.316-20,17.416-40.683,24.04-53.314,25.7l-11.467-42.783A91.928,91.928,0,0,0,905.968,388.5a63.36,63.36,0,0,0,18.848-18.946,19.7,19.7,0,0,0,1.668-18.27L868.89,210.73H897.4a26.618,26.618,0,0,1,24.586,16.423L956.466,310.3h.675l36.248-90.31a14.751,14.751,0,0,1,13.7-9.261h36.288Z" transform="translate(-573.325 -139.529)" fill="#000038"/><g transform="translate(466.16)"><path d="M1160.161,123.248l-38.005,114.595.651.252c19.638-26.921,44.15-39.991,67.393-39.991,37.086,0,45.834,30.763,42.083,59.735-6.323,48.8-51.922,111.86-112.853,111.86-22.559,0-44.451-9.147-40.439-40.081a153.486,153.486,0,0,1,5.322-22.649l60.378-183.729h15.471Zm-60.524,182.874a106.229,106.229,0,0,0-5.03,22.307c-2.344,18.116,6.608,28.118,27.979,28.118,51.7,0,88.487-57.684,93.842-99.042,3-23.161-4.3-45.973-31.56-45.973-28.63,0-62.762,30-78.371,74.6Z" transform="translate(-1078.512 -123.24)" fill="#3aacff"/><path d="M1436.658,219.85l-38.437,119.893c-5.233,16.667-9.261,31.275-12.134,44.182H1371.56l9.4-33.668h-.684c-16.024,21.452-40.74,37.428-63.641,37.428-17.863,0-43.165-7.178-37.8-48.536.928-7.178,2.93-15.381,6.445-25.977l30.038-93.313H1330.7L1300.611,313.6c-3.272,10.083-5.306,17.863-6.3,25.554-2.726,21.021,4.142,34.612,27.817,34.612,23.161,0,58.473-26.579,70.591-64.691l28.565-89.211h15.373Z" transform="translate(-1115.671 -141.226)" fill="#3aacff"/><path d="M1461.115,363.751a51.828,51.828,0,0,0,29.363,9.481c22.307,0,39.894-15.723,42.294-34.27,2.051-15.813-2.783-25.383-19.6-36.061-17.595-11.28-23.1-26.148-21.208-40.764,3.28-25.294,27.784-46.917,57.611-46.917,12.224,0,23.666,4.02,28.109,7.951l-7.349,13.16a42.774,42.774,0,0,0-24.472-7.691c-19.914,0-36.069,13.925-38.3,31.1-1.994,15.381,5.55,23.756,19.89,33.155,17.107,11.109,23.422,26.319,21.387,42.042-4.216,32.561-32.333,51.7-61.387,51.7-15.723,0-28.256-5.469-33.709-10.254Z" transform="translate(-1148.372 -140.365)" fill="#3aacff"/></g></g></g></svg>